HIERARCHY
ROOT Spine
{
    OFFSET 0.0 0.0 -0.0
    CHANNELS 6 Xposition Yposition Zposition Zrotation Xrotation Yrotation
    JOINT ShoulderCenter
    {
        OFFSET 0.0 34.31660079956055 0.0
        CHANNELS 3 Zrotation Xrotation Yrotation
        JOINT LeftShoulder
        {
            OFFSET 21.548973083496094 0.0 0.0
            CHANNELS 3 Zrotation Xrotation Yrotation
            JOINT LeftElbow
            {
                OFFSET 26.65042495727539 0.0 0.0
                CHANNELS 3 Zrotation Xrotation Yrotation
                JOINT LeftHand
                {
                    OFFSET 31.813560485839844 0.0 0.0
                    CHANNELS 3 Zrotation Xrotation Yrotation
                    End Site
                    {
                        OFFSET 12.725423812866211 0.0 0.0
                    }
                }
            }
        }
        JOINT RightShoulder
        {
            OFFSET -21.548973083496094 0.0 0.0
            CHANNELS 3 Zrotation Xrotation Yrotation
            JOINT RightElbow
            {
                OFFSET -26.65042495727539 0.0 0.0
                CHANNELS 3 Zrotation Xrotation Yrotation
                JOINT RightHand
                {
                    OFFSET -31.813560485839844 0.0 0.0
                    CHANNELS 3 Zrotation Xrotation Yrotation
                    End Site
                    {
                        OFFSET -12.725423812866211 0.0 0.0
                    }
                }
            }
        }
        End Site
        {
            OFFSET 0.0 13.726641654968262 0.0
        }
    }
    JOINT LeftHip
    {
        OFFSET 16.99239549035536 -16.99239549035536 0.0
        CHANNELS 3 Zrotation Xrotation Yrotation
        JOINT LeftKnee
        {
            OFFSET 0.0 -41.71665573120117 0.0
            CHANNELS 3 Zrotation Xrotation Yrotation
            JOINT LeftFoot
            {
                OFFSET 0.0 -45.40606689453125 0.0
                CHANNELS 3 Zrotation Xrotation Yrotation
                End Site
                {
                    OFFSET 0.0 0.0 18.16242790222168
                }
            }
        }
    }
    JOINT RightHip
    {
        OFFSET -16.99239549035536 -16.99239549035536 0.0
        CHANNELS 3 Zrotation Xrotation Yrotation
        JOINT RightKnee
        {
            OFFSET 0.0 -41.71665573120117 0.0
            CHANNELS 3 Zrotation Xrotation Yrotation
            JOINT RightFoot
            {
                OFFSET 0.0 -45.40606689453125 0.0
                CHANNELS 3 Zrotation Xrotation Yrotation
                End Site
                {
                    OFFSET 0.0 0.0 18.16242790222168
                }
            }
        }
    }
}
MOTION
Frames: 6
Frame Time: 0.03333333333333333
-9.600000381469727 11.800000190734863 24.5 1.6602808116954633 -5.954645110297516 -159.4696455943251 -2.875134891807733e-08 -8.34500464325815e-08 -8.440376710006603 93.49548279557445 6.049588126727085 -169.90125716879686 3.6892891883769963e-06 -6.014003509715679e-07 27.417709502155567 6.361109362927033e-15 -3.1805546814635164e-15 1.7655625192200634e-31 -91.40623973900298 11.323107261443566 -173.02791855161325 2.9009991349385455e-07 1.5975104047128714e-06 -30.936249345420375 0.0 1.5902773407317584e-15 0.0 2.8143981005055796 7.214552316026613 -68.2070783041324 15.657943512912194 -4.571565220565414 19.711718793084533 3.60297210009539e-16 6.67985880494102e-33 2.1245111348838336e-15 -5.584989741332395 -21.620750931413355 -4.557161542363134 -8.719799133974284 11.370365799653257 45.905352380121954 1.987846675914698e-16 6.681205822243892e-33 3.851452934584727e-15
-10.0 11.800000190734863 25.700000762939453 2.157950750801448 -5.952937461796106 -160.13450461618555 9.518901341734434e-08 4.554714946557949e-08 -8.057616903210542 94.31555123764926 4.505917444765124 -168.33023476225995 1.5453574888093497e-06 -6.538897991996833e-07 28.491246689079237 0.0 0.0 -3.1805546814635168e-15 -91.05902972296697 14.105930125885104 -173.0979582639854 4.309170929263642e-06 3.5165370101064083e-07 -32.86672393634061 0.0 0.0 0.0 2.858085957768724 6.560793629788374 -67.81090447240888 15.634486987113856 -4.597480791934586 19.624548758121932 -9.814992962328823e-16 -1.9878466759146985e-16 -1.2889943289134373e-16 -5.715677757080761 -21.68360029040172 -3.1449711426712716 -6.895756321446726 12.72775694334496 45.613941970426914 9.286971189038979e-16 -8.013506912281126e-16 9.425965155831452e-15
-10.300000190734863 11.699999809265137 26.69999885559082 2.3237704044924605 -5.623767106415517 -160.26011781871634 -1.7606927454677544e-07 -2.032103271773838e-07 -8.661744297273044 94.80131249427497 4.114572240300286 -167.81333816706365 7.875318327801935e-08 4.0312105987251265e-07 29.73043059749666 0.0 0.0 -4.770832022195275e-15 -91.42285517307526 15.237643761863485 -172.2216652851375 9.460405081144326e-07 -6.087830355891159e-07 -37.398970370883944 -6.361109362927033e-15 -1.5902773407317582e-15 -8.827812596100317e-32 2.846751916328314 6.517608381093567 -67.98091632725101 15.655649576396089 -4.522315960459598 18.85370961646674 3.4787316828507225e-16 -2.6967286403492486e-33 -8.883189832993808e-16 -5.713313095333138 -20.724052616811985 0.8882196464826683 -4.695803648134128 14.347541050321407 43.74852558592968 0.0 0.0 5.367186024969683e-15
-10.59999942779541 11.5 27.5 2.3237723185089143 -5.130327926716319 -160.92000518177875 2.9935465350193535e-07 1.3115832838041334e-07 -9.039491058142127 95.01065001208755 5.231602623975868 -167.93709511011892 -1.9026358077747332e-06 3.4090702422940483e-06 30.714612281149744 6.3611093629270335e-15 -8.827812596100317e-32 -1.5902773407317584e-15 -91.56165562300336 16.598462224897727 -171.90904359388276 6.590313684025915e-07 -4.817394359282689e-07 -42.81589250820893 -4.4139062980501586e-32 3.1805546814635164e-15 1.5902773407317582e-15 2.8848205099779847 6.858006505462568 -68.74014456938949 15.774224619511191 -4.474330193528174 18.117883324321465 -2.981770013872047e-16 4.752277044531543e-33 -1.8263341334966286e-15 -5.3278589568821655 -19.25029126035705 5.8061132714952 -2.7525770023408467 15.071539751803245 40.50705244506714 5.963540027744094e-16 -3.975693351829396e-16 -7.504121201577984e-15
-10.800000190734863 11.399999618530273 28.099998474121094 2.323770520143849 -4.471226353275579 -161.21910207399998 2.585856553741409e-07 3.3301583163106895e-07 -10.069412878881051 94.94924988405734 6.976143136322646 -168.9324070067279 -4.549828316322135e-06 2.9850155356349756e-06 31.247103602132313 6.3611093629270335e-15 -3.1805546814635168e-15 1.7655625192200634e-31 -92.04600028687048 17.63901116977801 -172.2980947565239 -3.735154311590888e-09 1.8875262910864275e-06 -48.3255934720938 0.0 0.0 3.1805546814635168e-15 2.844440395134148 7.2842582030217775 -68.87322184773589 15.59144574475621 -4.191242722507381 16.313402145764364 2.981770013872047e-16 -2.981770013872047e-16 1.3045243810690206e-16 -5.007879501557904 -17.488301656943325 10.582862366051637 -1.141282519780567 14.901336725278892 36.97168246312902 -3.975693351829396e-16 1.8966003624434275e-32 -5.466578358765419e-15
-11.0 11.300000190734863 28.60000228881836 2.1517200854778586 -3.635632985523841 -162.34375445843796 -3.266913219872694e-08 -4.563405635742592e-07 -10.324372245032428 94.51430955831725 9.478853996671171 -170.34365208409687 1.1286682867253402e-06 -8.715821297046336e-07 31.32980499852794 0.0 3.1805546814635164e-15 0.0 -92.68044960018145 18.237406464965783 -173.4397020598186 8.00292579097828e-06 2.1392258921490874e-07 -54.9022464490074 6.3611093629270335e-15 0.0 0.0 2.6598159057029735 8.197254613392756 -69.08068912310054 15.848832704218271 -3.793468799057368 14.349647394667228 -1.987846675914698e-16 3.9756933518293955e-16 9.423635648008113e-15 -4.210533742431303 -16.217539975205188 13.075018977716763 -1.3905945548143568 14.55911863992479 35.194099808825904 -3.975693351829396e-16 -1.4483130040477084e-32 4.174478019420866e-15
